<svg width="40" height="45" viewBox="0 0 40 45" xmlns="http://www.w3.org/2000/svg" xmlns:xlink="http://www.w3.org/1999/xlink"><title>freezetime4</title><defs><path d="M20.173 6.368C9.565 6.368.966 14.968.966 25.576c0 10.607 8.6 19.207 19.207 19.207 10.608 0 19.208-8.6 19.208-19.207 0-10.608-8.6-19.208-19.208-19.208z" id="a"/><mask id="b" x="0" y="0" width="38.415" height="38.415" fill="#fff"><use xlink:href="#a"/></mask></defs><g fill="none" fill-rule="evenodd"><g transform="translate(-.122)"><use stroke="#FFF" mask="url(#b)" stroke-width="10" fill="#F1C40F" xlink:href="#a"/><path d="M15.712 4.08A8.231 8.231 0 0 0 .966 9.112c0 1.485.392 2.878 1.081 4.08a21.966 21.966 0 0 1 13.665-9.115v.003zM38.3 13.192a8.182 8.182 0 0 0 1.08-4.08A8.231 8.231 0 0 0 24.636 4.08C30.29 5.249 35.147 8.59 38.3 13.195v-.003z" fill="#FFF"/></g><path d="M20.113 33.203v-2.299h-7.627v-3.77c1.385-2.707 2.932-5.318 5.629-9.432h6.294v9.71h1.848v3.492H24.41v2.299h-4.296zm-3.846-5.736v.128h3.975v-6.907h-.086c-1.58 2.428-2.61 4.072-3.89 6.779z" fill="#FFF"/></g></svg>