<svg width="40" height="45" viewBox="0 0 40 45" xmlns="http://www.w3.org/2000/svg" xmlns:xlink="http://www.w3.org/1999/xlink"><title>freezetime2</title><defs><path d="M20.173 6.368C9.565 6.368.966 14.968.966 25.576c0 10.607 8.6 19.207 19.207 19.207 10.608 0 19.208-8.6 19.208-19.207 0-10.608-8.6-19.208-19.208-19.208z" id="a"/><mask id="b" x="0" y="0" width="38.415" height="38.415" fill="#fff"><use xlink:href="#a"/></mask></defs><g fill="none" fill-rule="evenodd"><g transform="translate(-.122)"><use stroke="#FFF" mask="url(#b)" stroke-width="10" fill="#F1C40F" xlink:href="#a"/><path d="M15.712 4.08A8.231 8.231 0 0 0 .966 9.112c0 1.485.392 2.878 1.081 4.08a21.966 21.966 0 0 1 13.665-9.115v.003zM38.3 13.192a8.182 8.182 0 0 0 1.08-4.08A8.231 8.231 0 0 0 24.636 4.08C30.29 5.249 35.147 8.59 38.3 13.195v-.003z" fill="#FFF"/></g><path d="M14.051 22.568v.086h4.146v-.097c0-1.128.838-1.922 2.02-1.922 1.17 0 1.848.655 1.848 1.493 0 .86-.473 1.6-1.515 2.535l-6.23 5.51v3.03h12.31v-3.438h-6.434v-.086l3.641-3.222c.827-.73 2.61-2.342 2.61-4.469 0-2.814-2.31-4.716-6.069-4.716-3.835 0-6.327 2.127-6.327 5.296z" fill="#FFF"/></g></svg>