<svg width="40" height="45" viewBox="0 0 40 45" xmlns="http://www.w3.org/2000/svg" xmlns:xlink="http://www.w3.org/1999/xlink"><title>freezetime3</title><defs><path d="M20.173 6.368C9.565 6.368.966 14.968.966 25.576c0 10.607 8.6 19.207 19.207 19.207 10.608 0 19.208-8.6 19.208-19.207 0-10.608-8.6-19.208-19.208-19.208z" id="a"/><mask id="b" x="0" y="0" width="38.415" height="38.415" fill="#fff"><use xlink:href="#a"/></mask></defs><g fill="none" fill-rule="evenodd"><g transform="translate(-.122)"><use stroke="#FFF" mask="url(#b)" stroke-width="10" fill="#F1C40F" xlink:href="#a"/><path d="M15.712 4.08A8.231 8.231 0 0 0 .966 9.112c0 1.485.392 2.878 1.081 4.08a21.966 21.966 0 0 1 13.665-9.115v.003zM38.3 13.192a8.182 8.182 0 0 0 1.08-4.08A8.231 8.231 0 0 0 24.636 4.08C30.29 5.249 35.147 8.59 38.3 13.195v-.003z" fill="#FFF"/></g><path d="M18.199 26.822h1.869c1.289 0 2.051.602 2.051 1.611 0 1-.805 1.665-2.008 1.665-1.332 0-2.149-.633-2.181-1.665h-4.34c.15 3.159 2.664 5.2 6.424 5.2 4.114 0 6.735-1.837 6.735-4.738 0-2.116-1.493-3.459-3.77-3.706v-.086c1.869-.333 3.233-1.686 3.233-3.555 0-2.621-2.32-4.276-5.983-4.276-3.814 0-6.338 2.052-6.349 5.156h4.104c0-1.084.827-1.836 2.051-1.836 1.247 0 1.988.601 1.988 1.579 0 .988-.741 1.6-1.934 1.6H18.2v3.051z" fill="#FFF"/></g></svg>